<?xml version="1.0" standalone="no"?>
<!DOCTYPE svg PUBLIC "-//W3C//DTD SVG 20010904//EN"
 "http://www.w3.org/TR/2001/REC-SVG-20010904/DTD/svg10.dtd">
<svg version="1.0" xmlns="http://www.w3.org/2000/svg"
 width="500.000000pt" height="500.000000pt" viewBox="0 0 500.000000 500.000000"
 preserveAspectRatio="xMidYMid meet">
<metadata>
Created by potrace 1.11, written by Peter Selinger 2001-2013
</metadata>
<g transform="translate(0.000000,500.000000) scale(0.100000,-0.100000)"
fill="#000000" stroke="none">
<path d="M0 2500 l0 -2500 2500 0 2500 0 0 2500 0 2500 -2500 0 -2500 0 0
-2500z m3884 1786 c75 -92 135 -170 134 -172 -12 -11 -690 -101 -1098 -144
-107 -11 -205 -23 -217 -26 l-23 -4 0 -240 0 -240 184 0 184 0 46 78 c54 93
145 283 176 370 15 41 28 62 39 62 18 0 393 -90 400 -96 6 -6 -83 -174 -154
-289 -34 -55 -65 -106 -69 -114 -7 -11 50 -12 350 -8 198 3 374 9 392 12 l32
7 0 -207 0 -207 -27 7 c-16 4 -266 9 -558 11 l-530 4 40 -35 c22 -20 85 -69
140 -109 285 -210 599 -359 1002 -476 l72 -21 -65 -99 c-36 -55 -87 -147 -115
-205 l-49 -105 -53 24 c-29 12 -110 52 -180 88 l-128 65 4 -701 c3 -386 8
-716 12 -734 l7 -32 -218 2 -219 3 -3 93 -3 92 -884 0 -884 0 -3 -93 -3 -92
-215 0 -215 0 3 30 c5 50 14 1425 9 1425 -2 0 -76 -38 -163 -85 -87 -46 -160
-82 -162 -80 -2 2 -19 38 -38 80 -41 96 -85 170 -146 246 -27 32 -48 61 -48
63 0 2 21 9 48 16 72 20 256 87 367 136 263 114 523 280 713 457 l52 49 -517
-5 c-285 -2 -530 -8 -546 -12 l-27 -7 0 207 0 207 32 -6 c18 -4 192 -10 386
-13 l353 -5 -27 53 c-15 30 -53 98 -85 151 -33 54 -59 101 -59 106 0 5 60 30
133 55 l132 45 -264 -1 -263 -2 -38 108 c-21 59 -57 140 -80 180 -24 39 -44
74 -46 77 -1 3 145 3 324 2 487 -5 1008 24 1601 89 339 37 704 98 851 143 34
11 48 11 56 2 6 -6 73 -87 148 -180z"/>
<path d="M1945 3888 c-121 -5 -225 -11 -232 -13 -7 -3 5 -33 33 -82 25 -43 73
-135 107 -205 l62 -128 178 0 177 0 0 220 0 220 -52 -2 c-29 -1 -152 -6 -273
-10z"/>
<path d="M2245 3035 c-92 -122 -301 -321 -468 -446 l-118 -89 833 0 c474 0
828 4 823 9 -6 5 -53 39 -105 76 -149 106 -310 246 -430 374 l-110 116 5 -75
c2 -41 7 -146 10 -232 3 -86 8 -164 11 -172 5 -14 -20 -16 -221 -16 -158 0
-224 3 -220 11 7 10 26 471 21 477 -2 1 -16 -14 -31 -33z"/>
<path d="M1620 2025 l0 -125 330 0 330 0 0 125 0 125 -330 0 -330 0 0 -125z"/>
<path d="M2684 2137 c-2 -7 -3 -65 -2 -128 l3 -114 353 -3 352 -2 0 130 0 130
-350 0 c-280 0 -352 -3 -356 -13z"/>
<path d="M1620 1425 l0 -125 330 0 330 0 0 125 0 125 -330 0 -330 0 0 -125z"/>
<path d="M2680 1420 l0 -130 355 0 355 0 0 130 0 130 -355 0 -355 0 0 -130z"/>
</g>
</svg>
